<svg width="100" height="100" viewBox="0 0 100 100" fill="none" xmlns="http://www.w3.org/2000/svg">
<path d="M27.5 72C28.3284 72 29 71.1046 29 70C29 68.8954 28.3284 68 27.5 68C26.6716 68 26 68.8954 26 70C26 71.1046 26.6716 72 27.5 72Z" fill="#494D4B"/>
<path d="M37 72C38.1046 72 39 71.1046 39 70C39 68.8954 38.1046 68 37 68C35.8954 68 35 68.8954 35 70C35 71.1046 35.8954 72 37 72Z" fill="#494D4B"/>
<path d="M31.5 76C32.3284 76 33 75.3284 33 74.5C33 73.6716 32.3284 73 31.5 73C30.6716 73 30 73.6716 30 74.5C30 75.3284 30.6716 76 31.5 76Z" fill="#494D4B"/>
<path d="M68.5 72C69.3284 72 70 71.1046 70 70C70 68.8954 69.3284 68 68.5 68C67.6716 68 67 68.8954 67 70C67 71.1046 67.6716 72 68.5 72Z" fill="#494D4B"/>
<path d="M78 72C79.1046 72 80 71.1046 80 70C80 68.8954 79.1046 68 78 68C76.8954 68 76 68.8954 76 70C76 71.1046 76.8954 72 78 72Z" fill="#494D4B"/>
<path d="M72.5 76C73.3284 76 74 75.3284 74 74.5C74 73.6716 73.3284 73 72.5 73C71.6716 73 71 73.6716 71 74.5C71 75.3284 71.6716 76 72.5 76Z" fill="#494D4B"/>
<path fillRule="evenodd" clipRule="evenodd" d="M24.468 87.4537C14.1255 83.3421 7.58001 71.7709 8.02098 56L16.334 56.2059C15.9434 70.1766 21.7055 77.8592 27.7038 80.2438C33.4654 82.5343 41.717 80.7751 48.6501 71.1291C49.4528 70.0122 50.81 69.363 52.2418 69.4109C53.6736 69.4588 54.9783 70.1971 55.6948 71.3648C56.6409 72.9068 59.2434 75.382 62.9707 77.5295C66.6391 79.6431 70.7902 81.0846 74.5196 81.1491C78.0339 81.2099 81.2166 80.08 83.7224 76.798C86.3997 73.2916 88.5838 66.9533 88.6844 56.0689L97 56.137C96.8927 67.7545 94.5896 75.9772 90.4755 81.3654C86.19 86.9782 80.2771 89.0768 74.3667 88.9745C68.6714 88.876 63.0686 86.7628 58.6289 84.2048C56.2585 82.839 54.0407 81.2422 52.2041 79.5749C44.1372 88.1541 33.7134 91.1291 24.468 87.4537Z" fill="#494D4B"/>
<path fillRule="evenodd" clipRule="evenodd" d="M46.7475 56.0576L53 66.331L59.2525 56.0576H46.7475ZM37.9205 57.6691C35.3051 53.3716 38.5744 48 43.8052 48H62.1948C67.4256 48 70.6949 53.3717 68.0795 57.6691L58.8847 72.777C56.2693 77.0743 49.7307 77.0743 47.1153 72.777L50.7932 70.7626L47.1153 72.777L37.9205 57.6691Z" fill="#494D4B"/>
<path d="M20.8269 43.75L6.33991 18.75C5.37411 17.0833 6.58138 15 8.51299 15H37.487C39.4186 15 40.6259 17.0833 39.6601 18.75L25.1731 43.75C24.2073 45.4167 21.7927 45.4167 20.8269 43.75Z" fill="#9164FA"/>
<path fillRule="evenodd" clipRule="evenodd" d="M11.7399 19.0435L23.5 38.3479L35.2601 19.0435H11.7399ZM2.91978 20.6522C0.306391 16.3623 3.5732 11 8.79986 11H38.2001C43.4268 11 46.6936 16.3623 44.0802 20.6522L29.3801 44.7826C26.7667 49.0725 20.2333 49.0725 17.6199 44.7826L2.91978 20.6522Z" fill="#9164FA"/>
<path d="M82.5 34C87.1944 34 91 30.4183 91 26C91 21.5817 87.1944 18 82.5 18C77.8056 18 74 21.5817 74 26C74 30.4183 77.8056 34 82.5 34Z" fill="#494D4B"/>
<path d="M23.5 34C28.1944 34 32 30.4183 32 26C32 21.5817 28.1944 18 23.5 18C18.8056 18 15 21.5817 15 26C15 30.4183 18.8056 34 23.5 34Z" fill="#494D4B"/>
</svg>
