<svg width="125" height="115" viewBox="0 0 125 115" fill="none" xmlns="http://www.w3.org/2000/svg">
<path d="M36.3252 83C37.4298 83 38.3252 82.1046 38.3252 81C38.3252 79.8954 37.4298 79 36.3252 79C35.2206 79 34.3252 79.8954 34.3252 81C34.3252 82.1046 35.2206 83 36.3252 83Z" fill="#494D4B"/>
<path d="M48.3252 83C49.4298 83 50.3252 82.1046 50.3252 81C50.3252 79.8954 49.4298 79 48.3252 79C47.2206 79 46.3252 79.8954 46.3252 81C46.3252 82.1046 47.2206 83 48.3252 83Z" fill="#494D4B"/>
<path d="M42.3252 89C43.4298 89 44.3252 88.1046 44.3252 87C44.3252 85.8954 43.4298 85 42.3252 85C41.2206 85 40.3252 85.8954 40.3252 87C40.3252 88.1046 41.2206 89 42.3252 89Z" fill="#494D4B"/>
<path d="M85.3252 83C86.4298 83 87.3252 82.1046 87.3252 81C87.3252 79.8954 86.4298 79 85.3252 79C84.2206 79 83.3252 79.8954 83.3252 81C83.3252 82.1046 84.2206 83 85.3252 83Z" fill="#494D4B"/>
<path d="M97.3252 83C98.4298 83 99.3252 82.1046 99.3252 81C99.3252 79.8954 98.4298 79 97.3252 79C96.2206 79 95.3252 79.8954 95.3252 81C95.3252 82.1046 96.2206 83 97.3252 83Z" fill="#494D4B"/>
<path d="M91.3252 89C92.4298 89 93.3252 88.1046 93.3252 87C93.3252 85.8954 92.4298 85 91.3252 85C90.2206 85 89.3252 85.8954 89.3252 87C89.3252 88.1046 90.2206 89 91.3252 89Z" fill="#494D4B"/>
<path d="M18.3252 63C17.3252 101 47.9252 112.2 66.3252 85C73.1585 96.833 114.825 120.5 115.325 63" stroke="#494D4B" strokeWidth="10" strokeLinejoin="round"/>
<path d="M64.2273 81.5L53.402 62.75C52.2473 60.75 53.6907 58.25 56.0001 58.25H77.6507C79.9601 58.25 81.4035 60.75 80.2488 62.75L69.4235 81.5C68.2688 83.5 65.382 83.5 64.2273 81.5Z" stroke="#494D4B" strokeWidth="10" strokeLinejoin="round"/>
<path d="M28.7269 48.5L11.4064 18.5C10.2517 16.5 11.6951 14 14.0045 14H48.6455C50.9549 14 52.3983 16.5 51.2436 18.5L33.9231 48.5C32.7684 50.5 29.8816 50.5 28.7269 48.5Z" fill="#9164FA" stroke="#9164FA" strokeWidth="10" strokeLinejoin="round"/>
<path d="M103.325 37C108.848 37 113.325 32.5228 113.325 27C113.325 21.4772 108.848 17 103.325 17C97.8023 17 93.3252 21.4772 93.3252 27C93.3252 32.5228 97.8023 37 103.325 37Z" fill="#494D4B"/>
<path d="M31.3252 37C36.848 37 41.3252 32.5228 41.3252 27C41.3252 21.4772 36.848 17 31.3252 17C25.8023 17 21.3252 21.4772 21.3252 27C21.3252 32.5228 25.8023 37 31.3252 37Z" fill="#494D4B"/>
</svg>
